<svg width="32" height="32" viewBox="0 0 32 32" fill="none" xmlns="http://www.w3.org/2000/svg">
<circle cx="16" cy="16" r="15.5" stroke="#753BC5"/>
<g clip-path="url(#clip0_1_142)">
<path d="M22.5193 7.69581C22.3625 7.53908 22.1765 7.41476 21.9718 7.32993C21.767 7.24511 21.5475 7.20145 21.3259 7.20145C21.1043 7.20145 20.8848 7.24511 20.6801 7.32993C20.4753 7.41476 20.2893 7.53908 20.1326 7.69581L8.89494 18.9334C8.80966 19.0187 8.75405 19.1291 8.73631 19.2484L8.04162 23.9211C8.02872 24.008 8.03636 24.0967 8.06391 24.1801C8.09146 24.2636 8.13816 24.3394 8.20028 24.4015C8.2624 24.4636 8.3382 24.5103 8.42161 24.5378C8.50502 24.5654 8.59373 24.573 8.68062 24.5601L13.3533 23.8649C13.4726 23.8471 13.583 23.7915 13.6683 23.7062L24.9054 12.4692C25.0621 12.3125 25.1864 12.1264 25.2713 11.9217C25.3561 11.7169 25.3997 11.4975 25.3997 11.2758C25.3997 11.0542 25.3561 10.8348 25.2713 10.63C25.1864 10.4252 25.0621 10.2392 24.9054 10.0825L22.5193 7.69581V7.69581ZM19.1893 10.2304L22.3708 13.4125L21.1895 14.5937L18.0074 11.4117L19.1887 10.2304H19.1893ZM20.7924 14.9914L13.2571 22.5261L10.0756 19.3441L17.6097 11.8094L20.7918 14.9914H20.7924ZM12.752 22.8175L10.3012 23.182L9.41975 22.3L9.78481 19.8486L12.7526 22.8169L12.752 22.8175Z" fill="#753BC5"/>
</g>
<defs>
<clipPath id="clip0_1_142">
<rect width="18" height="18" fill="white" transform="translate(8 7)"/>
</clipPath>
</defs>
</svg>
