<svg width="59" height="56" viewBox="0 0 59 56" fill="none" xmlns="http://www.w3.org/2000/svg">
<path d="M42.7594 26.4522C39.8354 26.4522 36.9118 25.5609 34.2464 23.7785L34.1545 23.7171C30.9132 21.5492 27.195 21.5498 23.9537 23.7182C18.5683 27.3215 12.1374 27.3218 6.75142 23.7182L0.729463 19.6893C0.273283 19.3843 0 18.8736 0 18.3272V0H3.30282V17.4531L8.5953 20.9943C12.8899 23.8669 17.8157 23.8674 22.1101 20.9943C26.4585 18.0849 31.6503 18.0851 35.9982 20.9928L36.09 21.0542C40.3296 23.8893 45.1924 23.8883 49.431 21.053L54.8108 17.4537V0H58.1137V18.3272C58.1137 18.8736 57.8404 19.3843 57.3842 19.6893L51.2749 23.7767C48.609 25.5603 45.6842 26.4522 42.7596 26.4522H42.7594Z" fill="white"/>
<path d="M38.3086 52.7163H20.0328V56H38.3086V52.7163Z" fill="white"/>
<path d="M29.0554 47.056C28.6326 47.056 28.2099 46.8956 27.8876 46.5748L18.7555 37.4956C18.2829 37.0259 18.142 36.3201 18.3976 35.7065C18.6532 35.0929 19.2552 34.6929 19.9232 34.6929H38.1881C38.8561 34.6929 39.4581 35.0929 39.7136 35.7065C39.9693 36.3201 39.8281 37.0259 39.3558 37.4958L30.2233 46.5752C29.901 46.8956 29.4784 47.056 29.0557 47.056H29.0554ZM23.9098 37.9766L29.0554 43.0923L34.2009 37.9766H23.9098Z" fill="white"/>
<path d="M38.1886 37.9766H19.9237C19.4855 37.9766 19.0655 37.8035 18.7557 37.4955L0.485623 19.3257C0.176126 19.018 0.00205231 18.6001 0.00205231 18.1647V0H3.30488V17.4849L20.6078 34.6928H37.5045L55.2965 17.0041L57.6316 19.3257L39.356 37.4955C39.0465 37.8035 38.6266 37.9766 38.1883 37.9766H38.1886Z" fill="white"/>
<path d="M30.7095 0H27.4066V20.4482H30.7095V0Z" fill="white"/>
</svg>
