<svg width="160" height="307" viewBox="0 0 160 307" fill="none" xmlns="http://www.w3.org/2000/svg">
<path d="M234.716 145.015C218.666 145.015 202.617 140.128 187.987 130.357L187.482 130.02C169.69 118.136 149.28 118.139 131.487 130.027C101.926 149.78 66.6249 149.782 37.0602 130.027L4.0042 107.94C1.50011 106.268 0 103.468 0 100.472V0H18.13V95.6804L47.1816 115.094C70.7559 130.841 97.7946 130.845 121.367 115.094C145.237 99.1437 173.736 99.1453 197.603 115.085L198.107 115.422C221.379 130.964 248.072 130.959 271.338 115.416L300.87 95.6835V0H319V100.472C319 103.468 317.5 106.268 314.996 107.94L281.46 130.347C266.827 140.125 250.771 145.015 234.718 145.015H234.716Z" fill="white"/>
<path d="M159.492 257.968C157.171 257.968 154.851 257.088 153.082 255.33L102.953 205.556C100.359 202.981 99.5855 199.112 100.989 195.748C102.392 192.384 105.697 190.191 109.363 190.191H209.624C213.29 190.191 216.595 192.384 217.998 195.748C219.401 199.112 218.626 202.981 216.033 205.558L165.903 255.332C164.134 257.088 161.814 257.968 159.493 257.968H159.492ZM131.247 208.193L159.492 236.238L187.737 208.193H131.247Z" fill="white"/>
<path d="M209.626 208.193H109.366C106.96 208.193 104.655 207.244 102.955 205.556L2.66562 105.946C0.966715 104.259 0.0111847 101.969 0.0111847 99.5816V0H18.1412V95.8546L113.121 190.191H205.871L303.536 93.2186L316.353 105.946L216.034 205.556C214.335 207.244 212.03 208.193 209.625 208.193H209.626Z" fill="white"/>
<path d="M168.572 0H150.441V112.1H168.572V0Z" fill="white"/>
</svg>
