<svg width="160" height="46" viewBox="0 0 160 46" fill="none" xmlns="http://www.w3.org/2000/svg">
<g clip-path="url(#clip0_1_289)">
<path d="M34.9056 21.5937C32.5187 21.5937 30.1321 20.866 27.9563 19.411L27.8813 19.3609C25.2353 17.5912 22.2 17.5917 19.554 19.3618C15.1578 22.3033 9.90806 22.3035 5.51137 19.3618L0.59548 16.0729C0.223088 15.8239 0 15.407 0 14.961V0H2.69618V14.2474L7.01657 17.1382C10.5224 19.4831 14.5434 19.4836 18.049 17.1382C21.5988 14.7631 25.837 14.7634 29.3863 17.137L29.4613 17.1871C32.9221 19.5014 36.8918 19.5007 40.3518 17.1861L44.7435 14.2479V0H47.4398V14.961C47.4398 15.407 47.2167 15.8239 46.8443 16.0729L41.8571 19.4095C39.6809 20.8655 37.2932 21.5937 34.9058 21.5937H34.9056Z" fill="white"/>
<path d="M31.2723 43.0337H16.3533V45.7143H31.2723V43.0337Z" fill="white"/>
<path d="M23.7187 38.413C23.3736 38.413 23.0285 38.2821 22.7654 38.0203L15.3106 30.6086C14.9248 30.2253 14.8098 29.649 15.0185 29.1482C15.2271 28.6473 15.7186 28.3207 16.2638 28.3207H31.174C31.7193 28.3207 32.2107 28.6473 32.4193 29.1482C32.628 29.649 32.5127 30.2253 32.1272 30.6089L24.6721 38.0206C24.409 38.2821 24.064 38.413 23.7189 38.413H23.7187ZM19.5182 31.0013L23.7187 35.1774L27.9191 31.0013H19.5182Z" fill="white"/>
<path d="M31.1744 31.0013H16.2642C15.9065 31.0013 15.5637 30.86 15.3108 30.6086L0.396425 15.7761C0.143774 15.5249 0.0016737 15.1838 0.0016737 14.8283V0H2.69786V14.2734L16.8227 28.3207H30.6159L45.14 13.8809L47.0462 15.7761L32.1273 30.6086C31.8747 30.86 31.5319 31.0013 31.1741 31.0013H31.1744Z" fill="white"/>
<path d="M25.069 0H22.3727V16.6924H25.069V0Z" fill="white"/>
<path d="M68.2857 38.4609H64.5971V36.831C63.864 37.8605 62.5697 38.5894 60.952 38.5894C58.1691 38.5894 56.293 36.6809 56.293 33.4858V26.4947H59.96V32.9925C59.96 34.6224 60.8869 35.523 62.2674 35.523C63.6909 35.523 64.5971 34.6224 64.5971 32.9925V26.4947H68.2857V38.4607V38.4609Z" fill="white"/>
<path d="M75.7486 35.1371L73.8074 38.4609H69.8171L73.7863 32.3493L69.7097 26.4949H73.8509L76.1589 29.7974L78.1 26.4949H82.0903L78.0566 32.5208L82.1983 38.4609H78.0566L75.7486 35.1371Z" fill="white"/>
<path d="M82.3703 26.4947H86.0589L87.7629 35.0512L89.7903 26.4947H93.6943L95.7434 35.0082L97.4257 26.4947H100.898L97.6411 38.4607H93.5651L91.6669 30.6977L89.704 38.4607H85.6491L82.3709 26.4947H82.3703Z" fill="white"/>
<path d="M105.989 38.4608H102.301V26.4949H105.989V28.4894C106.83 27.224 108.146 26.3662 109.764 26.3662V30.2476H108.75C107.003 30.2476 105.989 30.8481 105.989 32.9068V38.4608Z" fill="white"/>
<path d="M111.187 23.2781C111.187 22.1629 112.072 21.2839 113.387 21.2839C114.681 21.2839 115.566 22.1632 115.566 23.2781C115.566 24.372 114.681 25.2511 113.387 25.2511C112.071 25.2511 111.187 24.3718 111.187 23.2781ZM111.533 26.4947H115.221V38.4606H111.533V26.4947Z" fill="white"/>
<path d="M118.478 29.5398H117.011V26.4947H118.478V23.5782H122.166V26.4947H124.582V29.5398H122.166V34.3433C122.166 35.0509 122.468 35.3513 123.288 35.3513H124.603V38.4606H122.727C120.225 38.4606 118.478 37.41 118.478 34.3003V29.5398Z" fill="white"/>
<path d="M126.307 23.2781C126.307 22.1629 127.192 21.2839 128.507 21.2839C129.801 21.2839 130.686 22.1632 130.686 23.2781C130.686 24.372 129.801 25.2511 128.507 25.2511C127.191 25.2511 126.307 24.3718 126.307 23.2781ZM126.653 26.4947H130.341V38.4606H126.653V26.4947Z" fill="white"/>
<path d="M141.32 31.963C141.32 30.3334 140.414 29.4326 139.012 29.4326C137.61 29.4326 136.704 30.3334 136.704 31.963V38.4609H133.015V26.4949H136.704V28.0818C137.437 27.0741 138.731 26.3665 140.349 26.3665C143.131 26.3665 144.987 28.2538 144.987 31.4703V38.4611H141.32V31.9633V31.963Z" fill="white"/>
<path d="M152.126 26.3232C153.894 26.3232 155.189 27.1168 155.835 28.189V26.4949H159.524V38.4394C159.524 41.6347 157.669 44.358 153.506 44.358C149.926 44.358 147.597 42.5567 147.273 39.7047H150.918C151.155 40.6052 152.061 41.1842 153.334 41.1842C154.736 41.1842 155.835 40.4551 155.835 38.4394V36.7455C155.167 37.7962 153.895 38.6325 152.126 38.6325C149.171 38.6325 146.82 36.2308 146.82 32.4565C146.82 28.6822 149.171 26.3235 152.126 26.3235V26.3232ZM153.205 29.5186C151.824 29.5186 150.573 30.548 150.573 32.4565C150.573 34.365 151.824 35.4372 153.205 35.4372C154.606 35.4372 155.835 34.3865 155.835 32.478C155.835 30.5695 154.606 29.5188 153.205 29.5188V29.5186Z" fill="white"/>
<path d="M57.0804 17.9393C57.8926 17.9393 58.4217 18.3399 58.608 19.0337H57.868C57.7537 18.7168 57.4891 18.5133 57.0801 18.5133C56.5264 18.5133 56.1597 18.9201 56.1597 19.6378C56.1597 20.3615 56.5266 20.7683 57.0801 20.7683C57.4891 20.7683 57.7417 20.589 57.868 20.2481H58.608C58.4217 20.894 57.892 21.3425 57.0804 21.3425C56.1299 21.3425 55.4559 20.6727 55.4559 19.6381C55.4559 18.6093 56.1299 17.9395 57.0804 17.9395V17.9393Z" fill="white"/>
<path d="M59.2943 16.8625H59.98V21.2884H59.2943V16.8625Z" fill="white"/>
<path d="M63.884 21.2884H63.1983V20.8937C62.9817 21.1748 62.6086 21.3363 62.2177 21.3363C61.4417 21.3363 60.852 20.852 60.852 19.9307V17.9928H61.532V19.829C61.532 20.4331 61.8629 20.7441 62.3623 20.7441C62.8674 20.7441 63.1983 20.4331 63.1983 19.829V17.9928H63.884V21.2884Z" fill="white"/>
<path d="M66.6269 17.9392C67.5051 17.9392 68.1851 18.609 68.1851 19.6259C68.1851 20.6428 67.4989 21.3425 66.6269 21.3425C66.0794 21.3425 65.6886 21.0973 65.472 20.8102V21.2889H64.7863V16.8631H65.472V18.4838C65.6886 18.1848 66.1034 17.9395 66.6269 17.9395V17.9392ZM66.4766 18.5313C65.9651 18.5313 65.472 18.9321 65.472 19.6378C65.472 20.3496 65.9651 20.7502 66.4766 20.7502C66.9943 20.7502 67.4874 20.3375 67.4874 19.6257C67.4874 18.9138 66.9943 18.531 66.4766 18.531V18.5313Z" fill="white"/>
<path d="M70.2909 21.3423C69.34 21.3423 68.636 20.6725 68.636 19.6378C68.636 18.6032 69.3103 17.9393 70.2909 17.9393C71.2354 17.9393 71.9029 18.591 71.9029 19.56C71.9029 19.6736 71.8966 19.7813 71.8789 19.8949H69.3463C69.3943 20.4393 69.7851 20.7681 70.2909 20.7681C70.7114 20.7681 70.9463 20.5648 71.0726 20.3077H71.8126C71.6263 20.8819 71.1029 21.3423 70.2909 21.3423ZM69.352 19.3446H71.1869C71.1749 18.8364 70.772 18.5133 70.2606 18.5133C69.7971 18.5133 69.4246 18.8242 69.352 19.3446Z" fill="white"/>
<path d="M75.4817 17.9393C75.9154 17.9393 76.372 18.1425 76.6251 18.4537V16.8629H77.3171V21.2887H76.6251V20.7922C76.4143 21.0911 76.0177 21.3425 75.476 21.3425C74.6034 21.3425 73.912 20.6428 73.912 19.6259C73.912 18.6091 74.6034 17.9393 75.4817 17.9393ZM75.6206 18.5313C75.1091 18.5313 74.616 18.9141 74.616 19.6259C74.616 20.3378 75.1091 20.7505 75.6206 20.7505C76.1377 20.7505 76.6251 20.3497 76.6251 19.6381C76.6251 18.9324 76.1377 18.5315 75.6206 18.5315V18.5313Z" fill="white"/>
<path d="M79.6566 21.3423C78.712 21.3423 77.996 20.6725 77.996 19.6378C77.996 18.6032 78.7423 17.9393 79.6869 17.9393C80.6314 17.9393 81.3771 18.6032 81.3771 19.6378C81.3771 20.6725 80.6069 21.3423 79.6566 21.3423ZM79.6566 20.7502C80.168 20.7502 80.6731 20.3852 80.6731 19.6378C80.6731 18.8904 80.1857 18.5313 79.6749 18.5313C79.1571 18.5313 78.6943 18.8902 78.6943 19.6378C78.6943 20.3854 79.1394 20.7502 79.6566 20.7502Z" fill="white"/>
</g>
<defs>
<clipPath id="clip0_1_289">
<rect width="160" height="45.7143" fill="white"/>
</clipPath>
</defs>
</svg>
