<svg width="32" height="32" viewBox="0 0 32 32" fill="none" xmlns="http://www.w3.org/2000/svg">
<circle cx="16" cy="16" r="15.5" stroke="#753BC5"/>
<g clip-path="url(#clip0_1_168)">
<path d="M17.983 15.186L19.465 12.536L16.835 14.018L16.021 11.096L15.207 14.018L12.556 12.536L14.017 15.186L11.095 16L14.017 16.814L12.535 19.465L15.185 17.983L15.999 20.905L16.813 17.983L19.463 19.465L17.981 16.835L20.903 16.021L17.983 15.186ZM16.835 16.167C16.835 16.188 16.814 16.209 16.814 16.229C16.814 16.249 16.793 16.291 16.793 16.309C16.772 16.33 16.772 16.351 16.751 16.389C16.73 16.41 16.73 16.431 16.709 16.451C16.6874 16.4893 16.6605 16.5243 16.629 16.555L16.608 16.576C16.566 16.618 16.528 16.638 16.482 16.68C16.461 16.701 16.44 16.701 16.42 16.722C16.4 16.743 16.371 16.757 16.341 16.763C16.3202 16.7767 16.2949 16.784 16.27 16.784H16.259C16.238 16.784 16.197 16.805 16.179 16.805C16.137 16.805 16.099 16.826 16.053 16.826H15.973L15.952 16.827C15.9155 16.8271 15.8794 16.8196 15.846 16.805L15.848 16.806C15.827 16.806 15.786 16.785 15.768 16.785C15.75 16.785 15.706 16.764 15.688 16.764C15.667 16.743 15.626 16.743 15.608 16.722C15.59 16.701 15.566 16.701 15.546 16.68C15.4994 16.6517 15.4573 16.6167 15.421 16.576L15.4 16.555C15.358 16.513 15.338 16.475 15.296 16.429C15.275 16.408 15.275 16.387 15.254 16.367C15.233 16.347 15.233 16.305 15.212 16.287C15.1983 16.2662 15.191 16.2419 15.191 16.217V16.206C15.191 16.185 15.17 16.164 15.17 16.144C15.1415 16.0328 15.1418 15.9161 15.171 15.805L15.17 15.81C15.17 15.789 15.191 15.768 15.191 15.748C15.191 15.706 15.212 15.686 15.233 15.644C15.233 15.623 15.254 15.602 15.254 15.582C15.275 15.561 15.275 15.52 15.296 15.502C15.321 15.4797 15.342 15.4534 15.358 15.424L15.359 15.422C15.401 15.38 15.421 15.342 15.463 15.318C15.484 15.297 15.505 15.276 15.525 15.276C15.567 15.255 15.587 15.234 15.629 15.214C15.65 15.214 15.65 15.193 15.671 15.193C15.713 15.172 15.751 15.172 15.797 15.151H15.839C15.9502 15.1225 16.0669 15.1228 16.178 15.152L16.173 15.151C16.194 15.151 16.215 15.172 16.235 15.172C16.277 15.172 16.297 15.193 16.339 15.214C16.36 15.235 16.381 15.235 16.419 15.256C16.44 15.277 16.461 15.277 16.481 15.298C16.5699 15.3595 16.6471 15.4364 16.709 15.525L16.711 15.528C16.732 15.549 16.732 15.57 16.753 15.59C16.774 15.61 16.788 15.639 16.794 15.669V15.67C16.807 15.69 16.815 15.714 16.815 15.74V15.751C16.815 15.772 16.836 15.793 16.836 15.831C16.85 15.873 16.858 15.921 16.858 15.97L16.857 15.999L16.858 16.033C16.8582 16.0801 16.8501 16.1268 16.834 16.171L16.835 16.168V16.167ZM15.604 9.823C15.604 9.51 15.604 9.217 15.583 8.967C15.687 9.197 15.813 9.447 15.917 9.656L16.335 10.407H16.794V8.445H16.376V9.029C16.3677 9.30976 16.3827 9.59073 16.421 9.869L16.418 9.843C16.3228 9.60232 16.2126 9.36786 16.088 9.141L16.105 9.175L15.687 8.445H15.165V10.407H15.583V9.823H15.604ZM10.094 15.833C10.052 16.063 10.014 16.292 9.99 16.522C9.969 16.292 9.928 16.084 9.886 15.854L9.715 15.02H9.235L9.075 15.834C9.033 16.084 8.971 16.314 8.949 16.523C8.907 16.314 8.869 16.064 8.823 15.834L8.674 15.02H8.194L8.653 16.982H9.133L9.321 16.126C9.3669 15.9346 9.40097 15.7406 9.423 15.545L9.425 15.521C9.446 15.751 9.487 15.939 9.505 16.127L9.672 16.983H10.152L10.653 15.021H10.253L10.094 15.833ZM23.054 16.146H23.764V15.792H23.054V15.374H23.805V15.019H22.595V16.981H23.847V16.627H23.054V16.146ZM16.166 22.511C15.916 22.407 15.79 22.365 15.79 22.24C15.79 22.136 15.87 22.052 16.082 22.052C16.233 22.058 16.376 22.087 16.51 22.135L16.5 22.132L16.604 21.778C16.4453 21.7146 16.2768 21.6794 16.106 21.674H16.103C15.644 21.674 15.352 21.924 15.352 22.258C15.352 22.55 15.561 22.717 15.894 22.842C16.124 22.922 16.228 22.988 16.228 23.113C16.228 23.238 16.124 23.322 15.915 23.322C15.7375 23.3184 15.5632 23.2746 15.405 23.194L15.412 23.197L15.332 23.573C15.492 23.652 15.68 23.699 15.878 23.699H15.892H15.891C16.433 23.699 16.684 23.428 16.684 23.093C16.691 22.825 16.521 22.637 16.166 22.511Z" fill="#753BC5"/>
<path d="M16 4C9.373 4 4 9.373 4 16C4 22.627 9.373 28 16 28C22.627 28 28 22.627 28 16C27.991 9.376 22.624 4.009 16.001 4H16ZM26.059 17.106C25.525 21.799 21.854 25.492 17.217 26.054L17.168 26.059L15.999 24.034L14.83 26.058C10.16 25.488 6.499 21.82 5.944 17.196L5.939 17.148L7.901 16L5.939 14.873C6.498 10.201 10.16 6.532 14.78 5.967L14.829 5.962L15.998 7.987L17.167 5.963C21.852 6.53 25.523 10.222 26.053 14.868L26.057 14.915L24.158 16.021L26.059 17.106Z" fill="#753BC5"/>
</g>
<defs>
<clipPath id="clip0_1_168">
<rect width="24" height="24" fill="white" transform="translate(4 4)"/>
</clipPath>
</defs>
</svg>
