<svg width="32" height="32" viewBox="0 0 32 32" fill="none" xmlns="http://www.w3.org/2000/svg">
<circle cx="16" cy="16" r="15.5" stroke="white"/>
<g clip-path="url(#clip0_1_193)">
<path d="M7.3402 20.4C7.8112 21.216 8.869 21.6474 10.3984 21.6474C11.086 21.6474 11.8432 21.5508 12.6322 21.3846C13.3918 23.712 14.6044 25.2 16 25.2C17.3956 25.2 18.6082 23.712 19.3678 21.3846C20.1574 21.5502 20.914 21.6474 21.6016 21.6474C23.1304 21.6474 24.1882 21.216 24.6592 20.4C25.2688 19.3434 24.7294 17.568 22.8796 15.6C24.7294 13.632 25.2688 11.8566 24.6592 10.8C24.1882 9.984 23.1304 9.5526 21.601 9.5526C20.9134 9.5526 20.1562 9.6492 19.3672 9.8154C18.6082 7.488 17.3956 6 16 6C14.6044 6 13.3918 7.488 12.6322 9.8154C11.8426 9.6492 11.0854 9.5526 10.3984 9.5526C8.869 9.5526 7.8112 9.984 7.3402 10.8C6.7306 11.8566 7.27 13.632 9.1198 15.6C7.27 17.568 6.73 19.3434 7.3402 20.4ZM16 24.6C14.8966 24.6 13.8904 23.2806 13.2238 21.2526C14.1735 21.0079 15.1019 20.687 16 20.2932C16.8981 20.687 17.8265 21.0079 18.7762 21.2526C18.1096 23.2806 17.1034 24.6 16 24.6ZM12.4 15.6C12.4 14.9016 12.4372 14.2218 12.5008 13.5642C13.0517 13.1799 13.6186 12.8189 14.2 12.4824C14.7845 12.1463 15.3852 11.8393 16 11.5626C16.6054 11.8356 17.2096 12.141 17.8 12.4824C18.3815 12.8186 18.9485 13.1796 19.4992 13.5642C19.5628 14.2218 19.6 14.9016 19.6 15.6C19.6 16.2984 19.5628 16.9782 19.4992 17.6358C18.9483 18.0201 18.3814 18.3811 17.8 18.7176C17.2155 19.0537 16.6148 19.3607 16 19.6374C15.385 19.3612 14.7842 19.0542 14.2 18.7176C13.6185 18.3814 13.0515 18.0204 12.5008 17.6358C12.4345 16.9592 12.4008 16.2798 12.4 15.6ZM11.8588 17.1738C11.209 16.6888 10.5905 16.1632 10.0072 15.6C10.5905 15.0368 11.209 14.5112 11.8588 14.0262C11.8234 14.5386 11.8 15.0612 11.8 15.6C11.8 16.1388 11.8234 16.6614 11.8588 17.1738ZM12.5926 12.7716C12.6942 12.0113 12.8474 11.2588 13.051 10.5192C13.803 10.713 14.5411 10.9574 15.2602 11.2506C14.803 11.472 14.347 11.7048 13.9 11.9628C13.4569 12.2205 13.021 12.4902 12.5926 12.7716ZM16.7392 11.2506C17.4583 10.9574 18.1964 10.713 18.9484 10.5192C19.1416 11.2092 19.2964 11.967 19.4068 12.7716C18.9785 12.49 18.5425 12.2203 18.0994 11.9628C17.6549 11.7088 17.2012 11.4712 16.7392 11.2506ZM20.1412 14.0262C20.7913 14.5108 21.4098 15.0365 21.9928 15.6C21.4095 16.1632 20.791 16.6888 20.1412 17.1738C20.1766 16.6614 20.2 16.1388 20.2 15.6C20.2 15.0612 20.1766 14.5386 20.1412 14.0262ZM19.4074 18.4284C19.3058 19.1887 19.1526 19.9412 18.949 20.6808C18.197 20.487 17.4589 20.2426 16.7398 19.9494C17.202 19.7289 17.656 19.4913 18.1006 19.2372C18.5434 18.9794 18.9792 18.7097 19.4074 18.4284ZM13.9 19.2372C14.347 19.4952 14.803 19.7286 15.2608 19.9494C14.5417 20.2426 13.8036 20.487 13.0516 20.6808C12.848 19.9412 12.6948 19.1887 12.5932 18.4284C13.0072 18.699 13.4362 18.969 13.9 19.2372ZM24.1402 20.1C23.7874 20.7114 22.8862 21.0474 21.6022 21.0474C20.9686 21.0474 20.2714 20.9598 19.543 20.8104C19.7946 19.8846 19.9706 18.9399 20.0692 17.9856C20.9968 17.3352 21.7798 16.6848 22.4332 16.0482C23.9524 17.6574 24.6688 19.1838 24.1402 20.1ZM21.6016 10.1526C22.8856 10.1526 23.7874 10.4892 24.1396 11.1C24.6688 12.0162 23.9518 13.5426 22.4326 15.1518C21.7792 14.5158 20.9962 13.8648 20.0686 13.2144C19.97 12.2601 19.794 11.3154 19.5424 10.3896C20.2708 10.2402 20.9686 10.1526 21.6016 10.1526ZM16 6.6C17.1034 6.6 18.1096 7.9194 18.7762 9.9474C17.8744 10.176 16.9366 10.4994 16 10.9068C15.1019 10.513 14.1735 10.1921 13.2238 9.9474C13.8904 7.9194 14.8966 6.6 16 6.6ZM7.8598 11.1C8.2126 10.4886 9.1138 10.1526 10.3978 10.1526C11.0314 10.1526 11.7286 10.2402 12.457 10.3896C12.2054 11.3154 12.0294 12.2601 11.9308 13.2144C11.0032 13.8648 10.2202 14.5152 9.5668 15.1518C8.0476 13.5426 7.3312 12.0162 7.8598 11.1ZM9.5668 16.0482C10.2202 16.6842 11.0032 17.3352 11.9308 17.9856C12.0412 19.0056 12.2194 19.956 12.457 20.8104C11.7292 20.9598 11.032 21.0474 10.3984 21.0474C9.1144 21.0474 8.212 20.7108 7.8598 20.1C7.3312 19.1838 8.0476 17.6574 9.5668 16.0482Z" fill="white" stroke="white" stroke-width="0.3"/>
<path d="M16 17.1C16.8268 17.1 17.5 16.4274 17.5 15.6C17.5 14.7726 16.8268 14.1 16 14.1C15.1732 14.1 14.5 14.7726 14.5 15.6C14.5 16.4274 15.1732 17.1 16 17.1ZM16 14.7C16.4962 14.7 16.9 15.1038 16.9 15.6C16.9 16.0962 16.4962 16.5 16 16.5C15.5038 16.5 15.1 16.0962 15.1 15.6C15.1 15.1038 15.5038 14.7 16 14.7Z" fill="white" stroke="white" stroke-width="0.3"/>
</g>
<defs>
<clipPath id="clip0_1_193">
<rect width="20" height="21" fill="white" transform="translate(6 5)"/>
</clipPath>
</defs>
</svg>
