<svg width="32" height="32" viewBox="0 0 32 32" fill="none" xmlns="http://www.w3.org/2000/svg">
<circle cx="16" cy="16" r="15.5" stroke="white"/>
<path d="M15.3125 20.125H18.75C19.1147 20.125 19.4644 19.9801 19.7223 19.7223C19.9801 19.4644 20.125 19.1147 20.125 18.75V18.0625H18.0625C17.8802 18.0625 17.7053 17.9901 17.5764 17.8611C17.4474 17.7322 17.375 17.5573 17.375 17.375C17.375 17.1927 17.4474 17.0178 17.5764 16.8889C17.7053 16.7599 17.8802 16.6875 18.0625 16.6875H20.125V14.625H18.0625C17.8802 14.625 17.7053 14.5526 17.5764 14.4236C17.4474 14.2947 17.375 14.1198 17.375 13.9375C17.375 13.7552 17.4474 13.5803 17.5764 13.4514C17.7053 13.3224 17.8802 13.25 18.0625 13.25H20.125V11.1875H18.0625C17.8802 11.1875 17.7053 11.1151 17.5764 10.9861C17.4474 10.8572 17.375 10.6823 17.375 10.5C17.375 10.3177 17.4474 10.1428 17.5764 10.0139C17.7053 9.88493 17.8802 9.8125 18.0625 9.8125H20.125V9.125C20.125 8.76033 19.9801 8.41059 19.7223 8.15273C19.4644 7.89487 19.1147 7.75 18.75 7.75H13.25C12.8853 7.75 12.5356 7.89487 12.2777 8.15273C12.0199 8.41059 11.875 8.76033 11.875 9.125V9.8125H13.9375C14.1198 9.8125 14.2947 9.88493 14.4236 10.0139C14.5526 10.1428 14.625 10.3177 14.625 10.5C14.625 10.6823 14.5526 10.8572 14.4236 10.9861C14.2947 11.1151 14.1198 11.1875 13.9375 11.1875H11.875V13.25H13.9375C14.1198 13.25 14.2947 13.3224 14.4236 13.4514C14.5526 13.5803 14.625 13.7552 14.625 13.9375C14.625 14.1198 14.5526 14.2947 14.4236 14.4236C14.2947 14.5526 14.1198 14.625 13.9375 14.625H11.875V16.6875H13.9375C14.1198 16.6875 14.2947 16.7599 14.4236 16.8889C14.5526 17.0178 14.625 17.1927 14.625 17.375C14.625 17.5573 14.5526 17.7322 14.4236 17.8611C14.2947 17.9901 14.1198 18.0625 13.9375 18.0625H11.875V18.75C11.875 19.1147 12.0199 19.4644 12.2777 19.7223C12.5356 19.9801 12.8853 20.125 13.25 20.125H15.3125ZM16.6875 21.5V24.25H20.8125C20.9948 24.25 21.1697 24.3224 21.2986 24.4514C21.4276 24.5803 21.5 24.7552 21.5 24.9375C21.5 25.1198 21.4276 25.2947 21.2986 25.4236C21.1697 25.5526 20.9948 25.625 20.8125 25.625H11.1875C11.0052 25.625 10.8303 25.5526 10.7014 25.4236C10.5724 25.2947 10.5 25.1198 10.5 24.9375C10.5 24.7552 10.5724 24.5803 10.7014 24.4514C10.8303 24.3224 11.0052 24.25 11.1875 24.25H15.3125V21.5H13.25C12.5207 21.5 11.8212 21.2103 11.3055 20.6945C10.7897 20.1788 10.5 19.4793 10.5 18.75V9.125C10.5 8.39565 10.7897 7.69618 11.3055 7.18046C11.8212 6.66473 12.5207 6.375 13.25 6.375H18.75C19.4793 6.375 20.1788 6.66473 20.6945 7.18046C21.2103 7.69618 21.5 8.39565 21.5 9.125V18.75C21.5 19.4793 21.2103 20.1788 20.6945 20.6945C20.1788 21.2103 19.4793 21.5 18.75 21.5H16.6875Z" fill="white"/>
</svg>
