<svg width="32" height="32" viewBox="0 0 32 32" fill="none" xmlns="http://www.w3.org/2000/svg">
<circle cx="16" cy="16" r="15.5" stroke="white"/>
<path d="M16 6.4375C14.3325 6.43777 12.6941 6.87407 11.2473 7.70309C9.80056 8.53211 8.59571 9.72504 7.75234 11.1635C6.90897 12.602 6.4564 14.236 6.43955 15.9033C6.42269 17.5707 6.84213 19.2135 7.65625 20.6688L6.83125 23.5469C6.76388 23.7721 6.75871 24.0114 6.81629 24.2394C6.87386 24.4673 6.99204 24.6755 7.15829 24.8417C7.32454 25.008 7.53267 25.1261 7.76063 25.1837C7.98858 25.2413 8.22787 25.2361 8.45313 25.1688L11.3313 24.3438C12.6065 25.0578 14.0285 25.4699 15.488 25.5486C16.9474 25.6273 18.4054 25.3704 19.7501 24.7977C21.0948 24.2249 22.2902 23.3516 23.2447 22.2447C24.1992 21.1378 24.8872 19.8269 25.2559 18.4126C25.6247 16.9983 25.6643 15.5183 25.3718 14.0863C25.0794 12.6544 24.4625 11.3085 23.5687 10.1521C22.6749 8.99567 21.5279 8.05955 20.2158 7.41561C18.9038 6.77168 17.4616 6.43707 16 6.4375V6.4375ZM16 24.4375C14.4856 24.4371 12.9993 24.029 11.6969 23.2562C11.6074 23.2085 11.5077 23.1828 11.4063 23.1813C11.3555 23.1782 11.3047 23.1846 11.2563 23.2L8.14375 24.0906C8.11117 24.1007 8.07648 24.1016 8.0434 24.0934C8.01031 24.0852 7.98009 24.0681 7.95599 24.044C7.93189 24.0199 7.91481 23.9897 7.9066 23.9566C7.89838 23.9235 7.89935 23.8888 7.90938 23.8563L8.8 20.7438C8.82103 20.6703 8.82688 20.5934 8.81721 20.5176C8.80754 20.4419 8.78255 20.3689 8.74375 20.3031C7.79432 18.7018 7.40114 16.8314 7.62544 14.9834C7.84975 13.1353 8.67896 11.4133 9.9839 10.0856C11.2888 8.75789 12.9962 7.89903 14.8402 7.6428C16.6841 7.38657 18.561 7.74736 20.1785 8.66896C21.796 9.59056 23.0633 11.0212 23.783 12.7381C24.5027 14.455 24.6343 16.3617 24.1575 18.1612C23.6806 19.9608 22.622 21.5521 21.1466 22.6873C19.6711 23.8225 17.8616 24.4378 16 24.4375V24.4375ZM20.8281 17.575L18.9063 16.4781C18.704 16.364 18.475 16.3056 18.2428 16.3089C18.0105 16.3122 17.7833 16.3771 17.5844 16.4969L16.3844 17.2188C15.7024 16.8558 15.1442 16.2976 14.7813 15.6156L15.5031 14.4156C15.6229 14.2167 15.6878 13.9895 15.6911 13.7572C15.6944 13.525 15.636 13.296 15.5219 13.0938L14.425 11.1719C14.3185 10.9874 14.1655 10.8341 13.9813 10.7271C13.797 10.6202 13.588 10.5635 13.375 10.5625C12.5312 10.5625 11.7219 10.897 11.1244 11.4928C10.5269 12.0885 10.19 12.8969 10.1875 13.7406C10.1863 14.8002 10.3939 15.8496 10.7985 16.8289C11.2032 17.8082 11.7968 18.6981 12.5456 19.4477C13.2944 20.1974 14.1837 20.7921 15.1624 21.1979C16.1412 21.6036 17.1904 21.8125 18.25 21.8125H18.2594C19.1031 21.81 19.9115 21.4731 20.5072 20.8756C21.103 20.2781 21.4375 19.4688 21.4375 18.625C21.4365 18.412 21.3798 18.203 21.2729 18.0187C21.1659 17.8345 21.0126 17.6815 20.8281 17.575ZM18.2594 20.6875H18.25C16.4092 20.685 14.6446 19.952 13.3439 18.6495C12.0431 17.347 11.3125 15.5814 11.3125 13.7406C11.315 13.1952 11.5334 12.673 11.9199 12.2883C12.3064 11.9035 12.8296 11.6875 13.375 11.6875C13.4039 11.6899 13.4308 11.7033 13.45 11.725L14.5469 13.6469C14.5619 13.6762 14.569 13.709 14.5673 13.7419C14.5657 13.7748 14.5554 13.8067 14.5375 13.8344L13.6656 15.3063C13.6163 15.382 13.5869 15.469 13.5804 15.5592C13.5738 15.6494 13.5902 15.7398 13.6281 15.8219C14.1406 16.9531 15.0469 17.8594 16.1781 18.3719C16.2602 18.4098 16.3506 18.4262 16.4408 18.4196C16.531 18.4131 16.618 18.3837 16.6938 18.3344L18.1656 17.4625C18.1933 17.4446 18.2252 17.4343 18.2581 17.4327C18.291 17.431 18.3238 17.4381 18.3531 17.4531L20.275 18.55C20.2967 18.5692 20.3101 18.5961 20.3125 18.625C20.3125 19.1704 20.0965 19.6936 19.7117 20.0801C19.327 20.4666 18.8048 20.685 18.2594 20.6875V20.6875Z" fill="white"/>
</svg>
